<?xml version="1.0" encoding="UTF-8"?>
<svg xmlns="http://www.w3.org/2000/svg" viewBox="0 0 227 56" aria-hidden="true" focusable="false">
  <path fill="currentColor" d="M210.72 42.84v-.04l-.9-1.44h-.04l-.78 1.32v.04l1.72.12Zm-1.89-4.97-.04.04 1.03 1.8h.04l.9-1.76-.04-.04-1.89-.04Zm-.82.33.08 4.23.04.04 1.11-1.97v-.04l-1.23-2.26Zm3.74 4.44v-4.57l-.04-.04-1.36 2.47v.04l1.4 2.1Zm-6.41-16.28h-.05c.05.74.09 2.01.09 2.01l.57 1.03c.2.33 1.77 7.77 1.77 7.77l1.97-.99a1.7 1.7 0 0 1-.24-1.31c-.08 0-.54-.09-.62-.2a5.82 5.82 0 0 1 .04-2.07c-.04-.08-.08-.12-.12-.24-.29-.37-1.4-1.6-1.4-1.81 0-.2.2-.45.2-.45l-2.21-3.74Zm-10.12 22.28c-.04-.12-.25-1.9-.29-2.34-2.1-.17-3.08-.37-3.37-.7-.29-.37 2.39-16.7 2.6-16.98.12-.2.77-.7.86-.87.08-.16 0-3.53 0-4.36h-.09c-.12 0-3.66 3.46-4.8 3.34a5.6 5.6 0 0 1-2.19-.87l1.85 28.95c1.98.61 4.07 1.03 6.21 1.19l.62-.99v-1.56l-.86-4.52s-.5-.13-.54-.29ZM198.14 0c-4.15 0-8.1.9-11.68 2.55l1.03 16.28c.45-.04.78-.08.82 0 .13.2.66 1.48.7 1.69.04.12-.04.28-.12.45.5.16 1.4.41 1.44.41 0 0 2.5-3.41 3.25-3.82.2-.13 2.18-1.03 3.04-1.4.08-.08.12-.2.16-.29l.25-2.18c.04-.25.58-.78.7-1.15.12-.41.08-2.34.12-2.5.09-.3 1.69-1.4 2.1-1.65.25-.17 2.1-.08 2.34-.04.83.16 1.48.86 1.48 1.15l-.08 2.88c0 .24.9 1.68.9 2.13 0 .46-.08 1.48-.08 1.73 0 .08.05.2.13.41.57.33 2.67 1.6 3 1.85.41.25 1.73 6.3 1.73 6.3l1.72 3.36s.5-.12.62-.04c.12.09.29 4 .29 4 .2.44.78 1.55.78 1.92 0 .42-.41.79-.87 1.03v.25c0 .37-.12.7-.32.94.61.33 1.68.87 1.68.9 0 .26.04.46 0 6.1 0 0-.7.57-.74.57-.04 0-2.38-.12-3.86-.25.08 1.11.16 1.98.08 2.26-.66.33-2.39.5-3.58.58-.24.86-1.03 3.58-1.2 3.58h-.48s-1.44 2.1-1.49 2.26c0 .2.54 1.97.54 1.97l1.4 1.2A28.05 28.05 0 0 0 226.1 28c.08-15.42-12.5-28-27.96-28ZM185.1 24.01a4.64 4.64 0 0 1-.94-2.59 4.7 4.7 0 0 1 .74-2.01c.04-.09.2-.13.45-.2l-.98-15.76a28 28 0 0 0-14.6 24.63c0 11.88 7.4 22 17.8 26.11l-1.89-29.89c-.2-.08-.4-.16-.57-.29ZM11.51 34.95c3.79 0 6.33-2.63 6.42-6h-5.84v-3.58h9.74c.09.7.13 1.4.13 2.1 0 6.57-3.87 11.01-10.45 11.01-6.9 0-11.55-4.8-11.51-11.8.04-6.94 4.65-11.8 11.55-11.8 3.95 0 7.57 1.94 8.93 4.7l-3 2.21a6.9 6.9 0 0 0-5.93-3.37c-4.19 0-7.36 3.54-7.36 8.26 0 4.77 3.09 8.27 7.32 8.27Zm13.24 10.03c-.86 0-1.6-.12-2.22-.41v-3.41c.41.12.7.16 1.07.16 1.15 0 1.9-.66 1.9-1.89V21.79h3.98v17.76c0 3.42-1.77 5.43-4.73 5.43Zm2.72-30.71a2.53 2.53 0 0 1 2.46 2.46 2.53 2.53 0 0 1-2.46 2.47A2.53 2.53 0 0 1 25 16.73a2.53 2.53 0 0 1 2.47-2.46Zm5.14 15.66c0-4.97 3.37-8.5 8.47-8.5 5.01 0 8.14 3.36 8.14 8.67 0 .45 0 .86-.04 1.27H36.63c.25 2.14 2.14 3.87 4.77 3.87 2.1 0 3.95-.74 5.4-2.1l1.55 2.8a9.99 9.99 0 0 1-6.95 2.59c-5.63-.05-8.8-3.46-8.8-8.6Zm12.74-1.4c.04-1.89-1.97-3.86-4.27-3.86-2.27 0-4.2 1.6-4.45 3.86h8.72Zm10.61-6.74v2.22c.86-1.6 2.96-2.59 5.26-2.59 3.5 0 5.88 2.55 5.88 6.25v10.4h-3.99v-9.86c0-2.14-1.15-3.62-3.33-3.62-1.8 0-3.37 1.48-3.37 3.99v9.5h-3.99v-16.3h3.54Zm21.26-.37c3.12 0 5.55 1.03 6.7 2.76l-2.84 2.42a5.05 5.05 0 0 0-3.95-1.93c-1.64 0-2.8.5-2.8 1.48 0 1.11 1.04 1.48 4.04 1.97 4.23.7 6.04 2.22 6.04 5.02 0 3.12-2.92 5.39-7.2 5.39-3.53 0-6.2-1.11-7.6-3.21l2.92-2.5c.9 1.39 3 2.46 4.85 2.46 1.69 0 3-.74 3-1.77 0-1.28-.98-1.77-4.03-2.22-4.03-.62-6.04-2.06-6.04-4.6.04-3.17 2.8-5.27 6.9-5.27Zm12.41-7.15a2.53 2.53 0 0 1 2.47 2.46 2.53 2.53 0 0 1-2.47 2.47 2.53 2.53 0 0 1-2.46-2.47 2.53 2.53 0 0 1 2.46-2.46Zm2.02 23.8h-3.99V21.8h3.99v16.28Zm3-8.14c0-5.1 3.2-8.5 8.02-8.5 1.8 0 3.66.81 4.44 1.92V15.3h3.99v22.77h-3.54v-2.26c-.7 1.4-2.47 2.67-5.1 2.67-4.68 0-7.81-3.49-7.81-8.55Zm8.22 5.3c2.43 0 4.28-1.76 4.28-5.26 0-3.53-1.8-5.26-4.23-5.26-2.1 0-4.24 1.73-4.24 5.26-.04 3.5 2.3 5.27 4.2 5.27Zm14.23-20.96a2.53 2.53 0 0 1 2.47 2.46 2.53 2.53 0 0 1-2.47 2.47 2.53 2.53 0 0 1-2.47-2.47 2.5 2.5 0 0 1 2.47-2.46Zm2.02 23.8h-4V21.8h4v16.28Zm3.16-8.14c0-5.1 3.2-8.5 7.85-8.5 2.02 0 4 .98 4.77 2.42v-2.06h3.54v15.13c0 4.69-3 8.06-8.39 8.06-3.37 0-5.8-1.03-7.28-3.2l2.35-2.43a5.92 5.92 0 0 0 4.93 2.26c3.66 0 4.4-2.96 4.4-4.9v-.49a5.59 5.59 0 0 1-4.69 2.18c-4.48.08-7.48-3.41-7.48-8.47Zm8.1 5.3c2.63 0 4.07-2.42 4.07-5.26 0-2.87-1.48-5.26-3.9-5.26-2.43 0-4.28 2.39-4.28 5.26 0 2.84 1.64 5.27 4.11 5.27Zm11.3-5.3c0-4.97 3.38-8.5 8.48-8.5 5.01 0 8.14 3.36 8.14 8.67 0 .45 0 .86-.04 1.27h-12.54c.24 2.14 2.13 3.87 4.77 3.87a7.7 7.7 0 0 0 5.38-2.1l1.56 2.8a10 10 0 0 1-6.94 2.59c-5.68-.05-8.8-3.46-8.8-8.6Zm12.71-1.4c.04-1.89-1.97-3.86-4.27-3.86-2.27 0-4.2 1.6-4.44 3.86h8.71Z" />
</svg>